<svg width="640" height="111" viewBox="0 0 640 111" fill="none" xmlns="http://www.w3.org/2000/svg">
<g clip-path="url(#clip0_6_47)">
<path d="M97.6533 104.883L101.171 92.5695H104.514L108.014 104.883H106.061L105.252 101.98H100.433L99.6234 104.883H97.6533ZM100.908 100.221H104.777L102.983 93.748H102.702L100.908 100.221ZM120.769 105.129C119.796 105.129 118.957 104.953 118.254 104.601C117.562 104.249 117.022 103.745 116.635 103.088C116.26 102.42 116.072 101.611 116.072 100.661V92.5695H117.99V100.714C117.99 101.582 118.23 102.25 118.711 102.719C119.192 103.188 119.878 103.423 120.769 103.423C121.66 103.423 122.346 103.188 122.827 102.719C123.308 102.25 123.548 101.582 123.548 100.714V92.5695H125.448V100.661C125.448 101.611 125.26 102.42 124.885 103.088C124.51 103.745 123.97 104.249 123.267 104.601C122.563 104.953 121.731 105.129 120.769 105.129ZM137.549 104.883V94.2933H133.767V92.5695H143.231V94.2933H139.449V104.883H137.549ZM155.748 105.129C154.235 105.129 153.033 104.707 152.142 103.862C151.251 103.006 150.805 101.775 150.805 100.168V97.2837C150.805 95.6771 151.251 94.4516 152.142 93.6073C153.033 92.7512 154.235 92.3232 155.748 92.3232C157.261 92.3232 158.463 92.7512 159.354 93.6073C160.257 94.4516 160.708 95.6771 160.708 97.2837V100.168C160.708 101.775 160.257 103.006 159.354 103.862C158.463 104.707 157.261 105.129 155.748 105.129ZM155.748 103.423C156.721 103.423 157.472 103.141 158 102.578C158.527 102.004 158.791 101.224 158.791 100.239V97.2133C158.791 96.2283 158.527 95.4543 158 94.8914C157.472 94.3168 156.721 94.0295 155.748 94.0295C154.798 94.0295 154.053 94.3168 153.514 94.8914C152.975 95.4543 152.705 96.2283 152.705 97.2133V100.239C152.705 101.224 152.975 102.004 153.514 102.578C154.053 103.141 154.798 103.423 155.748 103.423ZM169.642 104.883V92.5695H173.213L175.904 103.616H176.185L178.877 92.5695H182.447V104.883H180.6V93.9063H180.319L177.645 104.883H174.444L171.77 93.9063H171.489V104.883H169.642ZM190.786 104.883L194.304 92.5695H197.646L201.146 104.883H199.194L198.385 101.98H193.565L192.756 104.883H190.786ZM194.04 100.221H197.91L196.116 93.748H195.834L194.04 100.221ZM211.217 104.883V94.2933H207.435V92.5695H216.898V94.2933H213.117V104.883H211.217ZM225.305 104.883V92.5695H227.204V104.883H225.305ZM241.082 105.129C239.569 105.129 238.367 104.707 237.476 103.862C236.584 103.006 236.139 101.775 236.139 100.168V97.2837C236.139 95.6771 236.584 94.4516 237.476 93.6073C238.367 92.7512 239.569 92.3232 241.082 92.3232C242.594 92.3232 243.796 92.7512 244.688 93.6073C245.591 94.4516 246.042 95.6771 246.042 97.2837V100.168C246.042 101.775 245.591 103.006 244.688 103.862C243.796 104.707 242.594 105.129 241.082 105.129ZM241.082 103.423C242.055 103.423 242.805 103.141 243.333 102.578C243.861 102.004 244.125 101.224 244.125 100.239V97.2133C244.125 96.2283 243.861 95.4543 243.333 94.8914C242.805 94.3168 242.055 94.0295 241.082 94.0295C240.132 94.0295 239.387 94.3168 238.848 94.8914C238.308 95.4543 238.038 96.2283 238.038 97.2133V100.239C238.038 101.224 238.308 102.004 238.848 102.578C239.387 103.141 240.132 103.423 241.082 103.423ZM254.975 104.883V92.5695H258.634L261.976 103.616H262.258V92.5695H264.14V104.883H260.481L257.139 93.8184H256.857V104.883H254.975ZM339.842 105.129C338.916 105.129 338.095 104.965 337.379 104.636C336.664 104.308 336.101 103.827 335.691 103.194C335.292 102.549 335.093 101.769 335.093 100.855V100.415H336.975V100.855C336.975 101.722 337.233 102.373 337.749 102.807C338.277 103.241 338.974 103.458 339.842 103.458C340.722 103.458 341.384 103.276 341.83 102.913C342.275 102.537 342.498 102.057 342.498 101.47C342.498 101.083 342.393 100.767 342.182 100.52C341.971 100.274 341.672 100.081 341.285 99.9398C340.898 99.7874 340.434 99.6466 339.895 99.5177L339.244 99.3593C338.458 99.1717 337.772 98.943 337.186 98.6733C336.611 98.3919 336.166 98.0225 335.849 97.5651C335.533 97.1078 335.374 96.5214 335.374 95.8061C335.374 95.079 335.55 94.4575 335.902 93.9415C336.265 93.4255 336.764 93.0268 337.397 92.7454C338.03 92.4639 338.775 92.3232 339.631 92.3232C340.487 92.3232 341.249 92.4698 341.918 92.763C342.598 93.0561 343.132 93.49 343.519 94.0647C343.905 94.6393 344.099 95.3605 344.099 96.2283V96.8615H342.217V96.2283C342.217 95.7006 342.105 95.2725 341.883 94.9442C341.672 94.6158 341.372 94.3754 340.986 94.223C340.599 94.0705 340.147 93.9943 339.631 93.9943C338.881 93.9943 338.294 94.1526 337.872 94.4692C337.462 94.7741 337.256 95.2022 337.256 95.7533C337.256 96.1286 337.344 96.4393 337.52 96.6856C337.708 96.9201 337.978 97.1136 338.329 97.2661C338.681 97.4185 339.121 97.5534 339.649 97.6707L340.299 97.829C341.097 98.0049 341.801 98.2336 342.41 98.515C343.02 98.7847 343.501 99.1541 343.853 99.6232C344.205 100.092 344.38 100.696 344.38 101.435C344.38 102.174 344.193 102.819 343.818 103.37C343.454 103.921 342.932 104.355 342.252 104.672C341.572 104.977 340.769 105.129 339.842 105.129ZM355.882 104.883V100.415L351.608 92.5695H353.754L356.709 98.1456H356.973L359.928 92.5695H362.074L357.799 100.415V104.883H355.882ZM374.099 105.129C373.173 105.129 372.352 104.965 371.637 104.636C370.921 104.308 370.358 103.827 369.948 103.194C369.549 102.549 369.35 101.769 369.35 100.855V100.415H371.232V100.855C371.232 101.722 371.49 102.373 372.006 102.807C372.534 103.241 373.231 103.458 374.099 103.458C374.979 103.458 375.641 103.276 376.087 102.913C376.533 102.537 376.755 102.057 376.755 101.47C376.755 101.083 376.65 100.767 376.439 100.52C376.228 100.274 375.929 100.081 375.542 99.9398C375.155 99.7874 374.691 99.6466 374.152 99.5177L373.501 99.3593C372.715 99.1717 372.029 98.943 371.443 98.6733C370.868 98.3919 370.423 98.0225 370.106 97.5651C369.79 97.1078 369.631 96.5214 369.631 95.8061C369.631 95.079 369.807 94.4575 370.159 93.9415C370.523 93.4255 371.021 93.0268 371.654 92.7454C372.287 92.4639 373.032 92.3232 373.888 92.3232C374.744 92.3232 375.506 92.4698 376.175 92.763C376.855 93.0561 377.389 93.49 377.776 94.0647C378.163 94.6393 378.356 95.3605 378.356 96.2283V96.8615H376.474V96.2283C376.474 95.7006 376.363 95.2725 376.14 94.9442C375.929 94.6158 375.63 94.3754 375.243 94.223C374.856 94.0705 374.404 93.9943 373.888 93.9943C373.138 93.9943 372.551 94.1526 372.129 94.4692C371.719 94.7741 371.513 95.2022 371.513 95.7533C371.513 96.1286 371.601 96.4393 371.777 96.6856C371.965 96.9201 372.235 97.1136 372.586 97.2661C372.938 97.4185 373.378 97.5534 373.906 97.6707L374.557 97.829C375.354 98.0049 376.058 98.2336 376.667 98.515C377.277 98.7847 377.758 99.1541 378.11 99.6232C378.462 100.092 378.638 100.696 378.638 101.435C378.638 102.174 378.45 102.819 378.075 103.37C377.711 103.921 377.189 104.355 376.509 104.672C375.829 104.977 375.026 105.129 374.099 105.129ZM389.79 104.883V94.2933H386.008V92.5695H395.472V94.2933H391.69V104.883H389.79ZM403.878 104.883V92.5695H411.635V94.2933H405.778V97.829H411.143V99.5528H405.778V103.159H411.723V104.883H403.878ZM420.388 104.883V92.5695H423.959L426.65 103.616H426.932L429.623 92.5695H433.194V104.883H431.347V93.9063H431.065L428.392 104.883H425.19L422.516 93.9063H422.235V104.883H420.388ZM442.447 104.883V92.5695H444.346V104.883H442.447ZM453.157 104.883V102.42L459.631 94.522V94.2757H453.351V92.5695H461.583V95.0321L455.11 102.93V103.176H461.654V104.883H453.157ZM469.519 104.883L473.037 92.5695H476.379L479.88 104.883H477.927L477.118 101.98H472.298L471.489 104.883H469.519ZM472.773 100.221H476.643L474.849 93.748H474.567L472.773 100.221ZM489.95 104.883V94.2933H486.168V92.5695H495.632V94.2933H491.85V104.883H489.95ZM504.038 104.883V92.5695H505.938V104.883H504.038ZM519.815 105.129C518.302 105.129 517.1 104.707 516.209 103.862C515.318 103.006 514.872 101.775 514.872 100.168V97.2837C514.872 95.6771 515.318 94.4516 516.209 93.6073C517.1 92.7512 518.302 92.3232 519.815 92.3232C521.328 92.3232 522.53 92.7512 523.421 93.6073C524.324 94.4516 524.775 95.6771 524.775 97.2837V100.168C524.775 101.775 524.324 103.006 523.421 103.862C522.53 104.707 521.328 105.129 519.815 105.129ZM519.815 103.423C520.788 103.423 521.539 103.141 522.066 102.578C522.594 102.004 522.858 101.224 522.858 100.239V97.2133C522.858 96.2283 522.594 95.4543 522.066 94.8914C521.539 94.3168 520.788 94.0295 519.815 94.0295C518.865 94.0295 518.12 94.3168 517.581 94.8914C517.042 95.4543 516.772 96.2283 516.772 97.2133V100.239C516.772 101.224 517.042 102.004 517.581 102.578C518.12 103.141 518.865 103.423 519.815 103.423ZM533.709 104.883V92.5695H537.367L540.71 103.616H540.991V92.5695H542.873V104.883H539.214L535.872 93.8184H535.591V104.883H533.709ZM613.251 104.883L616.769 92.5695H620.111L623.612 104.883H621.659L620.85 101.98H616.03L615.221 104.883H613.251ZM616.505 100.221H620.375L618.581 93.748H618.299L616.505 100.221ZM631.964 104.883V92.5695H633.864V104.883H631.964Z" fill="black"/>
<path d="M297.328 102.227L296.414 101.312L299 98.7261L296.414 96.1403L297.328 95.2256L299.897 97.8114L302.465 95.2256L303.38 96.1403L300.794 98.7261L303.38 101.312L302.465 102.227L299.897 99.6232L297.328 102.227ZM576.062 102.227L575.147 101.312L577.733 98.7261L575.147 96.1403L576.062 95.2256L578.63 97.8114L581.198 95.2256L582.113 96.1403L579.527 98.7261L582.113 101.312L581.198 102.227L578.63 99.6232L576.062 102.227Z" fill="#F258B8"/>
<path d="M99.9049 59.7308V17.7539H117.175C119.814 17.7539 122.133 18.2936 124.132 19.373C126.17 20.4125 127.75 21.8916 128.869 23.8106C130.028 25.7295 130.608 28.0083 130.608 30.6468V31.4864C130.608 34.0849 130.008 36.3637 128.809 38.3226C127.65 40.2415 126.05 41.7407 124.012 42.8201C122.013 43.8595 119.734 44.3792 117.175 44.3792H107.821V59.7308H99.9049ZM107.821 37.1832H116.396C118.275 37.1832 119.794 36.6635 120.953 35.6241C122.113 34.5846 122.692 33.1654 122.692 31.3664V30.7668C122.692 28.9677 122.113 27.5485 120.953 26.5091C119.794 25.4697 118.275 24.95 116.396 24.95H107.821V37.1832ZM135.736 59.7308V29.9872H143.172V33.3453H144.251C144.691 32.146 145.411 31.2665 146.41 30.7068C147.45 30.1471 148.649 29.8672 150.008 29.8672H153.606V36.5835H149.888C147.969 36.5835 146.39 37.1033 145.151 38.1427C143.912 39.1421 143.292 40.7013 143.292 42.8201V59.7308H135.736ZM172.01 60.5703C169.052 60.5703 166.394 59.9706 164.035 58.7713C161.676 57.572 159.817 55.8329 158.458 53.5542C157.099 51.2754 156.419 48.5369 156.419 45.3387V44.3792C156.419 41.181 157.099 38.4425 158.458 36.1638C159.817 33.885 161.676 32.146 164.035 30.9467C166.394 29.7473 169.052 29.1476 172.01 29.1476C174.969 29.1476 177.627 29.7473 179.986 30.9467C182.345 32.146 184.204 33.885 185.563 36.1638C186.922 38.4425 187.602 41.181 187.602 44.3792V45.3387C187.602 48.5369 186.922 51.2754 185.563 53.5542C184.204 55.8329 182.345 57.572 179.986 58.7713C177.627 59.9706 174.969 60.5703 172.01 60.5703ZM172.01 53.854C174.329 53.854 176.248 53.1144 177.767 51.6352C179.286 50.1161 180.046 47.9573 180.046 45.1588V44.5591C180.046 41.7607 179.286 39.6219 177.767 38.1427C176.288 36.6235 174.369 35.8639 172.01 35.8639C169.692 35.8639 167.773 36.6235 166.254 38.1427C164.734 39.6219 163.975 41.7607 163.975 44.5591V45.1588C163.975 47.9573 164.734 50.1161 166.254 51.6352C167.773 53.1144 169.692 53.854 172.01 53.854ZM205.97 60.5703C203.611 60.5703 201.393 59.9906 199.314 58.8313C197.275 57.6319 195.636 55.8929 194.396 53.6141C193.157 51.3354 192.537 48.5769 192.537 45.3387V44.3792C192.537 41.141 193.157 38.3826 194.396 36.1038C195.636 33.8251 197.275 32.106 199.314 30.9467C201.353 29.7473 203.571 29.1476 205.97 29.1476C207.769 29.1476 209.268 29.3675 210.467 29.8073C211.707 30.2071 212.706 30.7268 213.466 31.3664C214.225 32.0061 214.805 32.6857 215.205 33.4053H216.284V17.7539H223.84V59.7308H216.404V56.1328H215.325C214.645 57.2521 213.586 58.2716 212.147 59.1911C210.747 60.1106 208.688 60.5703 205.97 60.5703ZM208.249 53.974C210.567 53.974 212.506 53.2344 214.066 51.7552C215.625 50.236 216.404 48.0372 216.404 45.1588V44.5591C216.404 41.6807 215.625 39.5019 214.066 38.0227C212.546 36.5036 210.607 35.744 208.249 35.744C205.93 35.744 203.991 36.5036 202.432 38.0227C200.873 39.5019 200.093 41.6807 200.093 44.5591V45.1588C200.093 48.0372 200.873 50.236 202.432 51.7552C203.991 53.2344 205.93 53.974 208.249 53.974ZM242.951 60.2105C240.633 60.2105 238.594 59.6908 236.835 58.6514C235.116 57.572 233.776 56.0928 232.817 54.2138C231.857 52.3349 231.378 50.176 231.378 47.7374V29.9872H238.934V47.1377C238.934 49.3765 239.473 51.0556 240.553 52.1749C241.672 53.2943 243.251 53.854 245.29 53.854C247.609 53.854 249.408 53.0944 250.687 51.5753C251.966 50.0161 252.606 47.8573 252.606 45.0988V29.9872H260.162V59.7308H252.726V55.8329H251.646C251.167 56.8324 250.267 57.8118 248.948 58.7713C247.629 59.7308 245.63 60.2105 242.951 60.2105ZM281.942 60.5703C279.064 60.5703 276.445 59.9706 274.087 58.7713C271.768 57.572 269.929 55.8329 268.57 53.5542C267.211 51.2754 266.531 48.517 266.531 45.2787V44.4392C266.531 41.201 267.211 38.4425 268.57 36.1638C269.929 33.885 271.768 32.146 274.087 30.9467C276.445 29.7473 279.064 29.1476 281.942 29.1476C284.781 29.1476 287.22 29.6474 289.258 30.6468C291.297 31.6463 292.936 33.0255 294.176 34.7845C295.455 36.5036 296.295 38.4625 296.694 40.6613L289.378 42.2204C289.218 41.0211 288.859 39.9417 288.299 38.9822C287.739 38.0228 286.94 37.2632 285.9 36.7035C284.901 36.1438 283.641 35.8639 282.122 35.8639C280.603 35.8639 279.224 36.2038 277.985 36.8834C276.785 37.523 275.826 38.5025 275.106 39.8218C274.427 41.1011 274.087 42.6802 274.087 44.5591V45.1588C274.087 47.0378 274.427 48.6369 275.106 49.9562C275.826 51.2355 276.785 52.2149 277.985 52.8945C279.224 53.5342 280.603 53.854 282.122 53.854C284.401 53.854 286.12 53.2743 287.279 52.115C288.479 50.9156 289.238 49.3565 289.558 47.4376L296.874 49.1766C296.354 51.2954 295.455 53.2344 294.176 54.9934C292.936 56.7124 291.297 58.0717 289.258 59.0711C287.22 60.0706 284.781 60.5703 281.942 60.5703ZM312.906 59.7308C310.947 59.7308 309.347 59.1311 308.108 57.9318C306.909 56.6925 306.309 55.0534 306.309 53.0145V36.2237H298.873V29.9872H306.309V20.7523H313.865V29.9872H322.02V36.2237H313.865V51.6952C313.865 52.8945 314.425 53.4942 315.544 53.4942H321.301V59.7308H312.906ZM328.26 59.7308V29.9872H335.816V59.7308H328.26ZM332.038 26.5091C330.679 26.5091 329.52 26.0693 328.56 25.1898C327.641 24.3103 327.181 23.151 327.181 21.7117C327.181 20.2725 327.641 19.1132 328.56 18.2337C329.52 17.3542 330.679 16.9144 332.038 16.9144C333.437 16.9144 334.597 17.3542 335.516 18.2337C336.436 19.1132 336.896 20.2725 336.896 21.7117C336.896 23.151 336.436 24.3103 335.516 25.1898C334.597 26.0693 333.437 26.5091 332.038 26.5091ZM349.826 59.7308L340.351 29.9872H348.387L355.283 54.2138H356.362L363.259 29.9872H371.294L361.819 59.7308H349.826ZM375.843 59.7308V29.9872H383.398V59.7308H375.843ZM379.621 26.5091C378.261 26.5091 377.102 26.0693 376.142 25.1898C375.223 24.3103 374.763 23.151 374.763 21.7117C374.763 20.2725 375.223 19.1132 376.142 18.2337C377.102 17.3542 378.261 16.9144 379.621 16.9144C381.02 16.9144 382.179 17.3542 383.099 18.2337C384.018 19.1132 384.478 20.2725 384.478 21.7117C384.478 23.151 384.018 24.3103 383.099 25.1898C382.179 26.0693 381.02 26.5091 379.621 26.5091ZM402.565 59.7308C400.606 59.7308 399.007 59.1311 397.768 57.9318C396.569 56.6925 395.969 55.0534 395.969 53.0145V36.2237H388.533V29.9872H395.969V20.7523H403.525V29.9872H411.68V36.2237H403.525V51.6952C403.525 52.8945 404.085 53.4942 405.204 53.4942H410.961V59.7308H402.565ZM421.158 71.7242V65.1278H437.35C438.469 65.1278 439.029 64.5281 439.029 63.3288V55.8329H437.949C437.629 56.5125 437.13 57.1922 436.45 57.8718C435.77 58.5514 434.851 59.1111 433.692 59.5509C432.532 59.9906 431.053 60.2105 429.254 60.2105C426.935 60.2105 424.896 59.6908 423.137 58.6514C421.418 57.572 420.079 56.0928 419.12 54.2138C418.16 52.3349 417.68 50.176 417.68 47.7374V29.9872H425.236V47.1377C425.236 49.3765 425.776 51.0556 426.855 52.1749C427.975 53.2943 429.554 53.854 431.593 53.854C433.911 53.854 435.71 53.0944 436.99 51.5753C438.269 50.0161 438.909 47.8573 438.909 45.0988V29.9872H446.464V65.0079C446.464 67.0467 445.865 68.6658 444.665 69.8652C443.466 71.1045 441.867 71.7242 439.868 71.7242H421.158ZM468.659 59.7308V17.7539H483.711L492.046 54.3338H493.126V17.7539H500.921V59.7308H485.87L477.534 23.151H476.455V59.7308H468.659ZM522.025 60.5703C519.067 60.5703 516.448 59.9507 514.169 58.7113C511.931 57.432 510.172 55.653 508.892 53.3743C507.653 51.0556 507.033 48.3371 507.033 45.2188V44.4992C507.033 41.3809 507.653 38.6824 508.892 36.4036C510.132 34.0849 511.871 32.3059 514.11 31.0666C516.348 29.7873 518.947 29.1476 521.905 29.1476C524.824 29.1476 527.362 29.8073 529.521 31.1266C531.68 32.4058 533.359 34.2049 534.558 36.5236C535.758 38.8023 536.357 41.4609 536.357 44.4992V47.0778H514.709C514.789 49.1166 515.549 50.7757 516.988 52.055C518.427 53.3343 520.186 53.974 522.265 53.974C524.384 53.974 525.943 53.5142 526.942 52.5947C527.942 51.6752 528.701 50.6558 529.221 49.5364L535.398 52.7746C534.838 53.814 534.019 54.9534 532.939 56.1927C531.9 57.3921 530.5 58.4315 528.741 59.311C526.982 60.1505 524.744 60.5703 522.025 60.5703ZM514.769 41.4409H528.681C528.522 39.7218 527.822 38.3426 526.583 37.3031C525.383 36.2637 523.804 35.744 521.845 35.744C519.806 35.744 518.187 36.2637 516.988 37.3031C515.789 38.3426 515.049 39.7218 514.769 41.4409ZM537.912 59.7308L548.706 44.739L538.032 29.9872H546.787L553.563 39.8817H554.642L561.419 29.9872H570.174L559.5 44.739L570.294 59.7308H561.419L554.642 49.7163H553.563L546.787 59.7308H537.912ZM586.773 60.2105C584.454 60.2105 582.415 59.6908 580.656 58.6514C578.937 57.572 577.598 56.0928 576.638 54.2138C575.679 52.3349 575.199 50.176 575.199 47.7374V29.9872H582.755V47.1377C582.755 49.3765 583.294 51.0556 584.374 52.1749C585.493 53.2943 587.072 53.854 589.111 53.854C591.43 53.854 593.229 53.0944 594.508 51.5753C595.788 50.0161 596.427 47.8573 596.427 45.0988V29.9872H603.983V59.7308H596.547V55.8329H595.468C594.988 56.8324 594.088 57.8118 592.769 58.7713C591.45 59.7308 589.451 60.2105 586.773 60.2105ZM624.145 60.5703C620.267 60.5703 617.088 59.7308 614.61 58.0517C612.131 56.3726 610.632 53.974 610.112 50.8557L617.068 49.0567C617.348 50.4559 617.808 51.5553 618.448 52.3548C619.127 53.1544 619.947 53.7341 620.906 54.0939C621.906 54.4137 622.985 54.5736 624.145 54.5736C625.904 54.5736 627.203 54.2738 628.042 53.6741C628.882 53.0345 629.302 52.2549 629.302 51.3354C629.302 50.4159 628.902 49.7163 628.102 49.2366C627.303 48.7168 626.024 48.2971 624.264 47.9773L622.585 47.6774C620.507 47.2776 618.608 46.7379 616.889 46.0583C615.17 45.3387 613.79 44.3593 612.751 43.1199C611.711 41.8806 611.192 40.2815 611.192 38.3226C611.192 35.3642 612.271 33.1055 614.43 31.5463C616.589 29.9472 619.427 29.1476 622.945 29.1476C626.263 29.1476 629.022 29.8872 631.221 31.3664C633.419 32.8456 634.859 34.7845 635.538 37.1832L628.522 39.342C628.202 37.8229 627.543 36.7435 626.543 36.1038C625.584 35.4642 624.384 35.1443 622.945 35.1443C621.506 35.1443 620.407 35.4042 619.647 35.9239C618.887 36.4036 618.508 37.0833 618.508 37.9628C618.508 38.9223 618.907 39.6419 619.707 40.1216C620.507 40.5613 621.586 40.9012 622.945 41.141L624.624 41.4409C626.863 41.8406 628.882 42.3803 630.681 43.06C632.52 43.6996 633.959 44.6391 634.999 45.8784C636.078 47.0778 636.618 48.7169 636.618 50.7957C636.618 53.914 635.478 56.3326 633.2 58.0517C630.961 59.7308 627.942 60.5703 624.145 60.5703Z" fill="black"/>
<g style="mix-blend-mode:multiply">
<rect x="25.4859" y="3.52924" width="16.9906" height="67.9625" fill="#0196CC"/>
</g>
<g style="mix-blend-mode:multiply">
<rect y="46.0058" width="16.9906" height="67.9625" transform="rotate(-90 0 46.0058)" fill="#F5E002"/>
</g>
<g style="mix-blend-mode:multiply">
<rect x="52.0025" y="7.47502" width="16.9906" height="67.9625" transform="rotate(45 52.0025 7.47502)" fill="#F258B8"/>
</g>
</g>
<defs>
<clipPath id="clip0_6_47">
<rect width="639.247" height="109.54" fill="white" transform="translate(0 0.730774)"/>
</clipPath>
</defs>
</svg>
