<svg width="1599" height="191" viewBox="0 0 1599 191" fill="none" xmlns="http://www.w3.org/2000/svg">
<g clip-path="url(#clip0_6_43)">
<path d="M249.9 147V42H293.1C299.7 42 305.5 43.35 310.5 46.05C315.6 48.65 319.55 52.35 322.35 57.15C325.25 61.95 326.7 67.65 326.7 74.25V76.35C326.7 82.85 325.2 88.55 322.2 93.45C319.3 98.25 315.3 102 310.2 104.7C305.2 107.3 299.5 108.6 293.1 108.6H269.7V147H249.9ZM269.7 90.6H291.15C295.85 90.6 299.65 89.3 302.55 86.7C305.45 84.1 306.9 80.55 306.9 76.05V74.55C306.9 70.05 305.45 66.5 302.55 63.9C299.65 61.3 295.85 60 291.15 60H269.7V90.6ZM339.674 147V72.6H358.274V81H360.974C362.074 78 363.874 75.8 366.374 74.4C368.974 73 371.974 72.3 375.374 72.3H384.374V89.1H375.074C370.274 89.1 366.324 90.4 363.224 93C360.124 95.5 358.574 99.4 358.574 104.7V147H339.674ZM430.41 149.1C423.01 149.1 416.36 147.6 410.46 144.6C404.56 141.6 399.91 137.25 396.51 131.55C393.11 125.85 391.41 119 391.41 111V108.6C391.41 100.6 393.11 93.75 396.51 88.05C399.91 82.35 404.56 78 410.46 75C416.36 72 423.01 70.5 430.41 70.5C437.81 70.5 444.46 72 450.36 75C456.26 78 460.91 82.35 464.31 88.05C467.71 93.75 469.41 100.6 469.41 108.6V111C469.41 119 467.71 125.85 464.31 131.55C460.91 137.25 456.26 141.6 450.36 144.6C444.46 147.6 437.81 149.1 430.41 149.1ZM430.41 132.3C436.21 132.3 441.01 130.45 444.81 126.75C448.61 122.95 450.51 117.55 450.51 110.55V109.05C450.51 102.05 448.61 96.7 444.81 93C441.11 89.2 436.31 87.3 430.41 87.3C424.61 87.3 419.81 89.2 416.01 93C412.21 96.7 410.31 102.05 410.31 109.05V110.55C410.31 117.55 412.21 122.95 416.01 126.75C419.81 130.45 424.61 132.3 430.41 132.3ZM515.355 149.1C509.455 149.1 503.905 147.65 498.705 144.75C493.605 141.75 489.505 137.4 486.405 131.7C483.305 126 481.755 119.1 481.755 111V108.6C481.755 100.5 483.305 93.6 486.405 87.9C489.505 82.2 493.605 77.9 498.705 75C503.805 72 509.355 70.5 515.355 70.5C519.855 70.5 523.605 71.05 526.605 72.15C529.705 73.15 532.205 74.45 534.105 76.05C536.005 77.65 537.455 79.35 538.455 81.15H541.155V42H560.055V147H541.455V138H538.755C537.055 140.8 534.405 143.35 530.805 145.65C527.305 147.95 522.155 149.1 515.355 149.1ZM521.055 132.6C526.855 132.6 531.705 130.75 535.605 127.05C539.505 123.25 541.455 117.75 541.455 110.55V109.05C541.455 101.85 539.505 96.4 535.605 92.7C531.805 88.9 526.955 87 521.055 87C515.255 87 510.405 88.9 506.505 92.7C502.605 96.4 500.655 101.85 500.655 109.05V110.55C500.655 117.75 502.605 123.25 506.505 127.05C510.405 130.75 515.255 132.6 521.055 132.6ZM607.86 148.2C602.06 148.2 596.96 146.9 592.56 144.3C588.26 141.6 584.91 137.9 582.51 133.2C580.11 128.5 578.91 123.1 578.91 117V72.6H597.81V115.5C597.81 121.1 599.16 125.3 601.86 128.1C604.66 130.9 608.61 132.3 613.71 132.3C619.51 132.3 624.01 130.4 627.21 126.6C630.41 122.7 632.01 117.3 632.01 110.4V72.6H650.91V147H632.31V137.25H629.61C628.41 139.75 626.16 142.2 622.86 144.6C619.56 147 614.56 148.2 607.86 148.2ZM705.391 149.1C698.191 149.1 691.641 147.6 685.741 144.6C679.941 141.6 675.341 137.25 671.941 131.55C668.541 125.85 666.841 118.95 666.841 110.85V108.75C666.841 100.65 668.541 93.75 671.941 88.05C675.341 82.35 679.941 78 685.741 75C691.641 72 698.191 70.5 705.391 70.5C712.491 70.5 718.591 71.75 723.691 74.25C728.791 76.75 732.891 80.2 735.991 84.6C739.191 88.9 741.291 93.8 742.291 99.3L723.991 103.2C723.591 100.2 722.691 97.5 721.291 95.1C719.891 92.7 717.891 90.8 715.291 89.4C712.791 88 709.641 87.3 705.841 87.3C702.041 87.3 698.591 88.15 695.491 89.85C692.491 91.45 690.091 93.9 688.291 97.2C686.591 100.4 685.741 104.35 685.741 109.05V110.55C685.741 115.25 686.591 119.25 688.291 122.55C690.091 125.75 692.491 128.2 695.491 129.9C698.591 131.5 702.041 132.3 705.841 132.3C711.541 132.3 715.841 130.85 718.741 127.95C721.741 124.95 723.641 121.05 724.441 116.25L742.741 120.6C741.441 125.9 739.191 130.75 735.991 135.15C732.891 139.45 728.791 142.85 723.691 145.35C718.591 147.85 712.491 149.1 705.391 149.1ZM782.842 147C777.942 147 773.942 145.5 770.842 142.5C767.842 139.4 766.342 135.3 766.342 130.2V88.2H747.742V72.6H766.342V49.5H785.242V72.6H805.642V88.2H785.242V126.9C785.242 129.9 786.642 131.4 789.442 131.4H803.842V147H782.842ZM821.25 147V72.6H840.15V147H821.25ZM830.7 63.9C827.3 63.9 824.4 62.8 822 60.6C819.7 58.4 818.55 55.5 818.55 51.9C818.55 48.3 819.7 45.4 822 43.2C824.4 41 827.3 39.9 830.7 39.9C834.2 39.9 837.1 41 839.4 43.2C841.7 45.4 842.85 48.3 842.85 51.9C842.85 55.5 841.7 58.4 839.4 60.6C837.1 62.8 834.2 63.9 830.7 63.9ZM875.194 147L851.494 72.6H871.594L888.844 133.2H891.544L908.794 72.6H928.894L905.194 147H875.194ZM940.271 147V72.6H959.171V147H940.271ZM949.721 63.9C946.321 63.9 943.421 62.8 941.021 60.6C938.721 58.4 937.571 55.5 937.571 51.9C937.571 48.3 938.721 45.4 941.021 43.2C943.421 41 946.321 39.9 949.721 39.9C953.221 39.9 956.121 41 958.421 43.2C960.721 45.4 961.871 48.3 961.871 51.9C961.871 55.5 960.721 58.4 958.421 60.6C956.121 62.8 953.221 63.9 949.721 63.9ZM1007.12 147C1002.22 147 998.215 145.5 995.115 142.5C992.115 139.4 990.615 135.3 990.615 130.2V88.2H972.015V72.6H990.615V49.5H1009.52V72.6H1029.92V88.2H1009.52V126.9C1009.52 129.9 1010.92 131.4 1013.72 131.4H1028.12V147H1007.12ZM1053.62 177V160.5H1094.12C1096.92 160.5 1098.32 159 1098.32 156V137.25H1095.62C1094.82 138.95 1093.57 140.65 1091.87 142.35C1090.17 144.05 1087.87 145.45 1084.97 146.55C1082.07 147.65 1078.37 148.2 1073.87 148.2C1068.07 148.2 1062.97 146.9 1058.57 144.3C1054.27 141.6 1050.92 137.9 1048.52 133.2C1046.12 128.5 1044.92 123.1 1044.92 117V72.6H1063.82V115.5C1063.82 121.1 1065.17 125.3 1067.87 128.1C1070.67 130.9 1074.62 132.3 1079.72 132.3C1085.52 132.3 1090.02 130.4 1093.22 126.6C1096.42 122.7 1098.02 117.3 1098.02 110.4V72.6H1116.92V160.2C1116.92 165.3 1115.42 169.35 1112.42 172.35C1109.42 175.45 1105.42 177 1100.42 177H1053.62ZM1172.44 147V42H1210.09L1230.94 133.5H1233.64V42H1253.14V147H1215.49L1194.64 55.5H1191.94V147H1172.44ZM1305.93 149.1C1298.53 149.1 1291.98 147.55 1286.28 144.45C1280.68 141.25 1276.28 136.8 1273.08 131.1C1269.98 125.3 1268.43 118.5 1268.43 110.7V108.9C1268.43 101.1 1269.98 94.35 1273.08 88.65C1276.18 82.85 1280.53 78.4 1286.13 75.3C1291.73 72.1 1298.23 70.5 1305.63 70.5C1312.93 70.5 1319.28 72.15 1324.68 75.45C1330.08 78.65 1334.28 83.15 1337.28 88.95C1340.28 94.65 1341.78 101.3 1341.78 108.9V115.35H1287.63C1287.83 120.45 1289.73 124.6 1293.33 127.8C1296.93 131 1301.33 132.6 1306.53 132.6C1311.83 132.6 1315.73 131.45 1318.23 129.15C1320.73 126.85 1322.63 124.3 1323.93 121.5L1339.38 129.6C1337.98 132.2 1335.93 135.05 1333.23 138.15C1330.63 141.15 1327.13 143.75 1322.73 145.95C1318.33 148.05 1312.73 149.1 1305.93 149.1ZM1287.78 101.25H1322.58C1322.18 96.95 1320.43 93.5 1317.33 90.9C1314.33 88.3 1310.38 87 1305.48 87C1300.38 87 1296.33 88.3 1293.33 90.9C1290.33 93.5 1288.48 96.95 1287.78 101.25ZM1345.67 147L1372.67 109.5L1345.97 72.6H1367.87L1384.82 97.35H1387.52L1404.47 72.6H1426.37L1399.67 109.5L1426.67 147H1404.47L1387.52 121.95H1384.82L1367.87 147H1345.67ZM1467.89 148.2C1462.09 148.2 1456.99 146.9 1452.59 144.3C1448.29 141.6 1444.94 137.9 1442.54 133.2C1440.14 128.5 1438.94 123.1 1438.94 117V72.6H1457.84V115.5C1457.84 121.1 1459.19 125.3 1461.89 128.1C1464.69 130.9 1468.64 132.3 1473.74 132.3C1479.54 132.3 1484.04 130.4 1487.24 126.6C1490.44 122.7 1492.04 117.3 1492.04 110.4V72.6H1510.94V147H1492.34V137.25H1489.64C1488.44 139.75 1486.19 142.2 1482.89 144.6C1479.59 147 1474.59 148.2 1467.89 148.2ZM1561.37 149.1C1551.67 149.1 1543.72 147 1537.52 142.8C1531.32 138.6 1527.57 132.6 1526.27 124.8L1543.67 120.3C1544.37 123.8 1545.52 126.55 1547.12 128.55C1548.82 130.55 1550.87 132 1553.27 132.9C1555.77 133.7 1558.47 134.1 1561.37 134.1C1565.77 134.1 1569.02 133.35 1571.12 131.85C1573.22 130.25 1574.27 128.3 1574.27 126C1574.27 123.7 1573.27 121.95 1571.27 120.75C1569.27 119.45 1566.07 118.4 1561.67 117.6L1557.47 116.85C1552.27 115.85 1547.52 114.5 1543.22 112.8C1538.92 111 1535.47 108.55 1532.87 105.45C1530.27 102.35 1528.97 98.35 1528.97 93.45C1528.97 86.05 1531.67 80.4 1537.07 76.5C1542.47 72.5 1549.57 70.5 1558.37 70.5C1566.67 70.5 1573.57 72.35 1579.07 76.05C1584.57 79.75 1588.17 84.6 1589.87 90.6L1572.32 96C1571.52 92.2 1569.87 89.5 1567.37 87.9C1564.97 86.3 1561.97 85.5 1558.37 85.5C1554.77 85.5 1552.02 86.15 1550.12 87.45C1548.22 88.65 1547.27 90.35 1547.27 92.55C1547.27 94.95 1548.27 96.75 1550.27 97.95C1552.27 99.05 1554.97 99.9 1558.37 100.5L1562.57 101.25C1568.17 102.25 1573.22 103.6 1577.72 105.3C1582.32 106.9 1585.92 109.25 1588.52 112.35C1591.22 115.35 1592.57 119.45 1592.57 124.65C1592.57 132.45 1589.72 138.5 1584.02 142.8C1578.42 147 1570.87 149.1 1561.37 149.1Z" fill="black"/>
<g style="mix-blend-mode:multiply">
<rect x="63.75" y="11" width="42.5" height="170" fill="#0196CC"/>
</g>
<g style="mix-blend-mode:multiply">
<rect y="117.25" width="42.5" height="170" transform="rotate(-90 0 117.25)" fill="#F5E002"/>
</g>
<g style="mix-blend-mode:multiply">
<rect x="130.078" y="20.8699" width="42.5" height="170" transform="rotate(45 130.078 20.8699)" fill="#F258B8"/>
</g>
</g>
<defs>
<clipPath id="clip0_6_43">
<rect width="1599" height="191" fill="white"/>
</clipPath>
</defs>
</svg>
